<svg width="30" height="16" viewBox="0 0 30 16" fill="none" xmlns="http://www.w3.org/2000/svg">
<path d="M4.46001 1C2.7516 1 1.5 2.67682 1.5 4.4873L1.5 8.11164L1.5 11.7148C1.5 13.5253 2.89159 15 4.6 15H11.42C13.1284 15 14.52 13.5253 14.52 11.7148V8.11164V4.4873C14.52 2.67682 13.1284 1 11.42 1H4.46001ZM4.46001 2H8H11.5C12.8736 2 13.9 3.03162 13.9 4.4873V8.11164V11.7148C13.9 13.1705 12.7936 14 11.42 14H8H4.6C3.22639 14 2.12 13.1705 2.12 11.7148V8.11164V4.4873C2.12 3.03162 3.0864 2 4.46001 2Z" fill="black"/>
<path d="M11 3.5C10.7372 3.75678 11.8133 2.75377 11.888 3.12709C11.9413 4.86576 11.968 6.76442 11.968 8.82309C11.968 10.8711 11.9573 12.0551 11.936 12.3751C11.9147 12.6951 11.8453 12.9191 11.728 13.0471C11.6107 13.1751 11.3973 13.2391 11.088 13.2391C10.8107 13.2391 10.672 13.0684 10.672 12.7271V9.11109C10.672 8.52442 10.6613 7.92177 10.64 7.3031C10.6187 6.68443 10.608 6.2951 10.608 6.1351C10.2453 6.75377 9.76533 7.26577 9.168 7.6711C8.57067 8.06577 7.904 8.2631 7.168 8.2631C6.432 8.2631 5.81333 7.9591 5.312 7.3511C5.29067 8.00177 5.28 8.7751 5.28 9.6711C5.28 10.5564 5.28533 11.4898 5.296 12.4711C5.296 12.7378 5.20533 12.9351 5.024 13.0631C4.85333 13.1804 4.656 13.2391 4.432 13.2391C4.144 13.2391 4 13.0631 4 12.7111C4.01067 11.7511 4.016 10.2311 4.016 8.15109V3.6071C4.016 3.42577 4.07467 3.24976 4.192 3.07909C4.32 2.90842 4.5 3.06709 4.5 3.06709C4.68417 3.36787 4.67532 3.56806 4.68417 3.6071C5 5 5.54667 5.4311 5.888 6.0071C6.22933 6.5831 6.63467 6.8711 7.104 6.8711C7.57333 6.8711 7.97333 6.79643 8.304 6.6471C8.64533 6.4871 8.92267 6.30577 9.136 6.1031C9.36 5.90043 9.57333 5.61243 9.776 5.2391C10 5 10.5 4 10.5 4C10.5 4 10.5 3.9329 11 3.5Z" fill="black"/>
<path d="M18.1256 5.092C17.7176 5.092 17.3416 5.432 16.9976 6.112C16.7096 6.664 16.3576 7.74 15.9416 9.34C15.5176 10.972 15.3056 12.072 15.3056 12.64C15.3056 12.872 15.4416 12.988 15.7136 12.988C15.9856 12.988 16.1376 12.912 16.1696 12.76C16.4256 10.944 16.6216 9.972 16.7576 9.844C16.7896 9.812 16.8936 9.796 17.0696 9.796C17.2056 9.796 17.5616 9.828 18.1376 9.892C18.6816 9.956 19.0016 10.016 19.0976 10.072C19.1616 10.112 19.2896 10.64 19.4816 11.656L19.6616 12.58C19.6936 12.732 19.7576 12.844 19.8536 12.916C19.9576 12.98 20.0736 13.012 20.2016 13.012C20.4096 13.012 20.5376 12.964 20.5856 12.868C20.6336 12.764 20.6496 12.668 20.6336 12.58C20.1536 9.804 19.6616 7.76 19.1576 6.448C18.9496 5.92 18.7736 5.556 18.6296 5.356C18.5016 5.18 18.3336 5.092 18.1256 5.092ZM18.0776 6.424C18.2136 6.424 18.3896 6.812 18.6056 7.588C18.8216 8.356 18.9296 8.796 18.9296 8.908C18.9296 9.004 18.9216 9.068 18.9056 9.1C18.8896 9.116 18.8296 9.124 18.7256 9.124C18.5016 9.124 18.1896 9.1 17.7896 9.052C17.3496 9.004 17.0976 8.948 17.0336 8.884C17.0176 8.868 17.0096 8.84 17.0096 8.8C17.0096 8.624 17.1576 8.188 17.4536 7.492C17.7576 6.78 17.9656 6.424 18.0776 6.424ZM22.797 5.524C22.757 5.34 22.641 5.248 22.449 5.248C22.321 5.248 22.189 5.292 22.053 5.38C21.925 5.468 21.853 5.56 21.837 5.656L21.909 9.688C21.909 10.904 21.869 11.896 21.789 12.664C21.789 12.896 21.901 13.012 22.125 13.012C22.261 13.012 22.393 12.968 22.521 12.88C22.657 12.784 22.733 12.676 22.749 12.556C22.813 11.724 22.845 10.768 22.845 9.688L22.797 5.524ZM24.5772 12.568C24.5612 12.848 24.6692 12.988 24.9012 12.988C25.2772 12.988 25.4892 12.728 25.5372 12.208C25.5532 11.952 25.5612 11.7 25.5612 11.452C25.5612 11.108 25.5492 10.66 25.5252 10.108C25.7572 9.94 26.0932 9.64 26.5332 9.208C26.9972 9.728 27.4212 10.304 27.8052 10.936L28.7412 12.448C28.9572 12.8 29.1332 12.976 29.2692 12.976C29.4052 12.976 29.5172 12.924 29.6052 12.82C29.6932 12.708 29.7372 12.564 29.7372 12.388C29.7372 12.156 29.6652 11.92 29.5212 11.68L29.2692 11.26L29.0292 10.864C28.5412 9.976 27.9652 9.2 27.3012 8.536C27.8132 7.944 28.2892 7.336 28.7292 6.712C29.1852 6.072 29.4132 5.628 29.4132 5.38C29.4132 5.284 29.3692 5.204 29.2812 5.14C29.2012 5.068 29.0972 5.032 28.9692 5.032C28.7292 5.032 28.5412 5.14 28.4052 5.356C27.9412 6.116 27.5212 6.72 27.1452 7.168C26.7052 7.688 26.1492 8.256 25.4772 8.872C25.4372 7.312 25.3572 6.16 25.2372 5.416C25.1812 5.176 25.0532 5.056 24.8532 5.056C24.7012 5.056 24.5652 5.124 24.4452 5.26C24.3252 5.388 24.2652 5.54 24.2652 5.716C24.3212 6.076 24.3852 7.008 24.4572 8.512C24.5372 9.904 24.5772 10.944 24.5772 11.632V12.568Z" fill="black"/>
<path d="M22.3417 3.416C22.1551 3.416 22.0004 3.46933 21.8777 3.576C21.7551 3.67733 21.6937 3.81867 21.6937 4C21.6937 4.192 21.7524 4.35467 21.8697 4.488C21.9817 4.62133 22.1231 4.688 22.2937 4.688C22.4697 4.688 22.6244 4.62133 22.7577 4.488C22.8911 4.34933 22.9524 4.17867 22.9417 3.976C22.9417 3.88533 22.8857 3.77333 22.7737 3.64C22.6617 3.50667 22.5471 3.432 22.4297 3.416H22.3417Z" fill="black"/>
</svg>
