<svg width="16" height="16" viewBox="0 0 16 16" fill="none" xmlns="http://www.w3.org/2000/svg">
<path d="M4.46001 1C2.7516 1 1.5 2.67682 1.5 4.4873L1.5 8.11164L1.5 11.7148C1.5 13.5253 2.89159 15 4.6 15H11.42C13.1284 15 14.52 13.5253 14.52 11.7148V8.11164V4.4873C14.52 2.67682 13.1284 1 11.42 1H4.46001ZM4.46001 2H8H11.5C12.8736 2 13.9 3.03162 13.9 4.4873V8.11164V11.7148C13.9 13.1705 12.7936 14 11.42 14H8H4.6C3.22639 14 2.12 13.1705 2.12 11.7148V8.11164V4.4873C2.12 3.03162 3.0864 2 4.46001 2Z" fill="white"/>
<path d="M11 3.5671C10.7372 3.82387 11.8133 2.75377 11.888 3.12709C11.9413 4.86576 11.968 6.76442 11.968 8.82309C11.968 10.8711 11.9573 12.0551 11.936 12.3751C11.9147 12.6951 11.8453 12.9191 11.728 13.0471C11.6107 13.1751 11.3973 13.2391 11.088 13.2391C10.8107 13.2391 10.672 13.0684 10.672 12.7271V9.11109C10.672 8.52442 10.6613 7.92177 10.64 7.3031C10.6187 6.68443 10.608 6.2951 10.608 6.1351C10.2453 6.75377 9.76533 7.26577 9.168 7.6711C8.57067 8.06577 7.904 8.2631 7.168 8.2631C6.432 8.2631 5.81333 7.9591 5.312 7.3511C5.29067 8.00177 5.28 8.7751 5.28 9.6711C5.28 10.5564 5.28533 11.4898 5.296 12.4711C5.296 12.7378 5.20533 12.9351 5.024 13.0631C4.85333 13.1804 4.656 13.2391 4.432 13.2391C4.144 13.2391 4 13.0631 4 12.7111C4.01067 11.7511 4.016 10.2311 4.016 8.15109V3.6071C4.016 3.42577 4.07467 3.24976 4.192 3.07909C4.32 2.90842 4.5 3.06709 4.5 3.06709C4.68417 3.36787 4.68273 3.5671 4.68417 3.6071C4.72684 4.7911 5.54667 5.4311 5.888 6.0071C6.22933 6.5831 6.63467 6.8711 7.104 6.8711C7.57333 6.8711 7.97333 6.79643 8.304 6.6471C8.64533 6.4871 8.92267 6.30577 9.136 6.1031C9.36 5.90043 9.57333 5.61243 9.776 5.2391C10.064 4.70577 10 4.56709 10.5 4.06709C11 3.56709 10.696 3.8231 11 3.5671Z" fill="#F7F7F7"/>
</svg>
