<svg width="30" height="17" viewBox="0 0 30 17" fill="none" xmlns="http://www.w3.org/2000/svg">
<path d="M13 4.4C12.7372 4.65678 13.8133 3.65377 13.888 4.0271C13.9413 5.76577 13.968 7.66443 13.968 9.7231C13.968 11.7711 13.9573 12.9551 13.936 13.2751C13.9147 13.5951 13.8453 13.8191 13.728 13.9471C13.6107 14.0751 13.3973 14.1391 13.088 14.1391C12.8107 14.1391 12.672 13.9684 12.672 13.6271V10.0111C12.672 9.42443 12.6613 8.82177 12.64 8.2031C12.6187 7.58443 12.608 7.1951 12.608 7.0351C12.2453 7.65377 11.7653 8.16577 11.168 8.5711C10.5707 8.96577 9.904 9.1631 9.168 9.1631C8.432 9.1631 7.81333 8.8591 7.312 8.2511C7.29067 8.90177 7.28 9.6751 7.28 10.5711C7.28 11.4564 7.28533 12.3898 7.296 13.3711C7.296 13.6378 7.20533 13.8351 7.024 13.9631C6.85333 14.0804 6.656 14.1391 6.432 14.1391C6.144 14.1391 6 13.9631 6 13.6111C6.01067 12.6511 6.016 11.1311 6.016 9.0511V4.5071C6.016 4.32577 6.07467 4.14977 6.192 3.9791C6.32 3.80843 6.5 3.9671 6.5 3.9671C6.68417 4.26788 6.67532 4.46806 6.68417 4.5071C7 5.9 7.54667 6.3311 7.888 6.9071C8.22933 7.4831 8.63467 7.7711 9.104 7.7711C9.57333 7.7711 9.97333 7.69643 10.304 7.5471C10.6453 7.3871 10.9227 7.20577 11.136 7.0031C11.36 6.80043 11.5733 6.51243 11.776 6.1391C12 5.9 12.5 4.9 12.5 4.9C12.5 4.9 12.5 4.8329 13 4.4Z" fill="black"/>
<path d="M18.1256 6.09201C17.7176 6.09201 17.3416 6.43201 16.9976 7.11201C16.7096 7.66401 16.3576 8.74001 15.9416 10.34C15.5176 11.972 15.3056 13.072 15.3056 13.64C15.3056 13.872 15.4416 13.988 15.7136 13.988C15.9856 13.988 16.1376 13.912 16.1696 13.76C16.4256 11.944 16.6216 10.972 16.7576 10.844C16.7896 10.812 16.8936 10.796 17.0696 10.796C17.2056 10.796 17.5616 10.828 18.1376 10.892C18.6816 10.956 19.0016 11.016 19.0976 11.072C19.1616 11.112 19.2896 11.64 19.4816 12.656L19.6616 13.58C19.6936 13.732 19.7576 13.844 19.8536 13.916C19.9576 13.98 20.0736 14.012 20.2016 14.012C20.4096 14.012 20.5376 13.964 20.5856 13.868C20.6336 13.764 20.6496 13.668 20.6336 13.58C20.1536 10.804 19.6616 8.76001 19.1576 7.44801C18.9496 6.92001 18.7736 6.55601 18.6296 6.35601C18.5016 6.18001 18.3336 6.09201 18.1256 6.09201ZM18.0776 7.42401C18.2136 7.42401 18.3896 7.81201 18.6056 8.58801C18.8216 9.35601 18.9296 9.79601 18.9296 9.90801C18.9296 10.004 18.9216 10.068 18.9056 10.1C18.8896 10.116 18.8296 10.124 18.7256 10.124C18.5016 10.124 18.1896 10.1 17.7896 10.052C17.3496 10.004 17.0976 9.94801 17.0336 9.88401C17.0176 9.86801 17.0096 9.84001 17.0096 9.80001C17.0096 9.62401 17.1576 9.18801 17.4536 8.49201C17.7576 7.78001 17.9656 7.42401 18.0776 7.42401ZM22.797 6.52401C22.757 6.34001 22.641 6.24801 22.449 6.24801C22.321 6.24801 22.189 6.29201 22.053 6.38001C21.925 6.46801 21.853 6.56001 21.837 6.65601L21.909 10.688C21.909 11.904 21.869 12.896 21.789 13.664C21.789 13.896 21.901 14.012 22.125 14.012C22.261 14.012 22.393 13.968 22.521 13.88C22.657 13.784 22.733 13.676 22.749 13.556C22.813 12.724 22.845 11.768 22.845 10.688L22.797 6.52401ZM24.5772 13.568C24.5612 13.848 24.6692 13.988 24.9012 13.988C25.2772 13.988 25.4892 13.728 25.5372 13.208C25.5532 12.952 25.5612 12.7 25.5612 12.452C25.5612 12.108 25.5492 11.66 25.5252 11.108C25.7572 10.94 26.0932 10.64 26.5332 10.208C26.9972 10.728 27.4212 11.304 27.8052 11.936L28.7412 13.448C28.9572 13.8 29.1332 13.976 29.2692 13.976C29.4052 13.976 29.5172 13.924 29.6052 13.82C29.6932 13.708 29.7372 13.564 29.7372 13.388C29.7372 13.156 29.6652 12.92 29.5212 12.68L29.2692 12.26L29.0292 11.864C28.5412 10.976 27.9652 10.2 27.3012 9.53601C27.8132 8.94401 28.2892 8.33601 28.7292 7.71201C29.1852 7.07201 29.4132 6.62801 29.4132 6.38001C29.4132 6.28401 29.3692 6.20401 29.2812 6.14001C29.2012 6.06801 29.0972 6.03201 28.9692 6.03201C28.7292 6.03201 28.5412 6.14001 28.4052 6.35601C27.9412 7.11601 27.5212 7.72001 27.1452 8.16801C26.7052 8.68801 26.1492 9.25601 25.4772 9.87201C25.4372 8.31201 25.3572 7.16001 25.2372 6.41601C25.1812 6.17601 25.0532 6.05601 24.8532 6.05601C24.7012 6.05601 24.5652 6.12401 24.4452 6.26001C24.3252 6.38801 24.2652 6.54001 24.2652 6.71601C24.3212 7.07601 24.3852 8.00801 24.4572 9.51201C24.5372 10.904 24.5772 11.944 24.5772 12.632V13.568Z" fill="black"/>
<path d="M22.3417 4.41601C22.1551 4.41601 22.0004 4.46934 21.8777 4.57601C21.7551 4.67734 21.6937 4.81867 21.6937 5.00001C21.6937 5.19201 21.7524 5.35467 21.8697 5.48801C21.9817 5.62134 22.1231 5.68801 22.2937 5.68801C22.4697 5.68801 22.6244 5.62134 22.7577 5.48801C22.8911 5.34934 22.9524 5.17867 22.9417 4.97601C22.9417 4.88534 22.8857 4.77334 22.7737 4.64001C22.6617 4.50667 22.5471 4.43201 22.4297 4.41601H22.3417Z" fill="black"/>
</svg>
